<?xml version="1.0" encoding="utf-8"?>
<!-- Generator: Adobe Illustrator 16.0.4, SVG Export Plug-In . SVG Version: 6.00 Build 0)  -->
<!DOCTYPE svg PUBLIC "-//W3C//DTD SVG 1.1//EN" "http://www.w3.org/Graphics/SVG/1.1/DTD/svg11.dtd">
<svg version="1.1" id="Layer_1" xmlns="http://www.w3.org/2000/svg" xmlns:xlink="http://www.w3.org/1999/xlink" x="0px" y="0px"
	 width="21px" height="17px" viewBox="97 0 21 17" enable-background="new 97 0 21 17" xml:space="preserve">
<title>Group 2</title>
<desc>Created with Sketch.</desc>
<g id="DESKTOP---EXPERIENCE---SELECT" transform="translate(-216.000000, -62.000000)">
	<g id="Group-2" transform="translate(216.000000, 62.000000)">
		<g id="Group-11">
			<path id="Fill-8" fill="#FFD939" d="M118,0h-0.574h-2.041c-0.881,0-1.74,0.354-2.355,0.972l-4.875,4.894
				c-0.207,0.208-0.205,0.546,0.005,0.752l1.254,1.226C109.516,7.944,109.653,8,109.8,8c0.148,0,0.288-0.058,0.392-0.162
				l7.408-7.436L118,0z"/>
			<path id="Fill-9" fill="#3AB2E9" d="M99.625,0H97l0.402,0.404l7.398,7.433C104.904,7.942,105.044,8,105.193,8
				c0.146,0,0.285-0.056,0.389-0.157l1.258-1.232c0.211-0.208,0.214-0.546,0.006-0.755l-4.856-4.879
				C101.372,0.356,100.51,0,99.625,0"/>
			<path id="Fill-10" fill="#FFD939" d="M109.82,9c-0.147,0-0.287,0.056-0.391,0.159l-1.269,1.242
				c-0.214,0.209-0.216,0.551-0.005,0.762l4.849,4.856c0.622,0.624,1.49,0.981,2.38,0.981h2.035H118l-0.404-0.408l-7.379-7.428
				C110.112,9.058,109.972,9,109.82,9"/>
			<path id="Fill-11" fill="#3AB2E9" d="M105.189,9c-0.15,0-0.291,0.058-0.395,0.163l-7.39,7.43L97,17h0.58h2.045
				c0.888,0,1.753-0.357,2.373-0.98l4.846-4.865c0.21-0.211,0.208-0.552-0.004-0.761l-1.26-1.235C105.476,9.056,105.337,9,105.189,9
				"/>
		</g>
	</g>
</g>
</svg>
