<?xml version="1.0" encoding="UTF-8"?>
<svg width="166px" height="34px" viewBox="0 0 166 34" version="1.1" xmlns="http://www.w3.org/2000/svg" xmlns:xlink="http://www.w3.org/1999/xlink">
    <!-- Generator: Sketch 48.2 (47327) - http://www.bohemiancoding.com/sketch -->
    <title>Group 2</title>
    <desc>Created with Sketch.</desc>
    <defs>
        <polygon id="path-1" points="0.106025581 0.111637736 12.8763488 0.111637736 12.8763488 15.9324679 0.106025581 15.9324679"></polygon>
    </defs>
    <g id="DESKTOP---EXPERIENCE---SELECT" stroke="none" stroke-width="1" fill="none" fill-rule="evenodd" transform="translate(-216.000000, -62.000000)">
        <g id="Group-2" transform="translate(216.000000, 62.000000)">
            <g id="Group-11">
                <g id="Group-3" transform="translate(153.000000, 0.000000)">
                    <mask id="mask-2" fill="white">
                        <use xlink:href="#path-1"></use>
                    </mask>
                    <g id="Clip-2"></g>
                    <path d="M6.50671163,0.111637736 C2.73807209,0.111637736 0.106025581,2.73971321 0.106025581,6.50258113 L0.106025581,15.9324679 L2.1656186,15.9324679 L2.1656186,6.41005283 C2.1656186,3.82092075 3.95085116,2.01292075 6.50671163,2.01292075 C9.04443256,2.01292075 10.8166651,3.82092075 10.8166651,6.41005283 L10.8166651,15.9324679 L12.8764093,15.9324679 L12.8764093,6.50258113 C12.8764093,2.73971321 10.2570605,0.111637736 6.50671163,0.111637736" id="Fill-1" fill="#FFFFFF" mask="url(#mask-2)"></path>
                </g>
                <path d="M139.499851,14.0420065 C136.488472,14.0420065 134.038694,11.3520684 134.038694,8.04529925 C134.038694,4.67122831 136.488472,1.92647437 139.499851,1.92647437 C142.527804,1.92647437 144.99117,4.67122831 144.99117,8.04529925 C144.99117,11.3520684 142.527804,14.0420065 139.499851,14.0420065 M139.499851,0 C135.294344,0 132,3.53395065 132,8.04529925 C132,12.5059431 135.294344,16 139.499851,16 C143.705507,16 147,12.5059431 147,8.04529925 C147,3.53395065 143.705507,0 139.499851,0" id="Fill-4" fill="#FFFFFF"></path>
                <polygon id="Fill-6" fill="#FFFFFF" points="123 16 125 16 125 0 123 0"></polygon>
                <path d="M118,0 L117.425428,0 L115.384735,0 C114.50322,0 113.644569,0.354185944 113.029368,0.971798688 L108.15447,5.86506819 C107.946552,6.07362111 107.948855,6.41091041 108.159405,6.61704952 L109.412837,7.84326347 C109.516138,7.94432152 109.65349,8 109.799559,8 C109.948425,8 110.087585,7.94255139 110.191544,7.83827493 L117.598967,0.402623004 L118,0 Z" id="Fill-8" fill="#FFD939"></path>
                <path d="M99.6249211,0 L97,0 L97.4023987,0.404478034 L104.800129,7.83752981 C104.904485,7.94228671 105.044012,8 105.193446,8 C105.340073,8 105.477948,7.94422665 105.581809,7.84254132 L106.840028,6.61067777 C107.051382,6.40358889 107.053529,6.06490725 106.845146,5.85523178 L101.989447,0.976599442 C101.371896,0.355979469 100.509967,0 99.6249211,0" id="Fill-9" fill="#3AB2E9"></path>
                <path d="M109.820616,9 C109.672802,9 109.53381,9.05623701 109.429275,9.15876768 L108.161369,10.4002201 C107.947971,10.6093565 107.945973,10.9513428 108.156875,11.1625983 L113.005113,16.0191939 C113.627497,16.6425282 114.494907,17 115.385121,17 L117.41923,17 L118,17 L117.595176,16.5923224 L110.217451,9.16414687 C110.11225,9.05819308 109.971427,9 109.820616,9" id="Fill-10" fill="#FFD939"></path>
                <path d="M105.189494,9 C105.039499,9 104.899128,9.05793799 104.79443,9.16323541 L97.4050196,16.5928066 L97,17 L97.5800691,17 L99.6250782,17 C100.51277,17 101.37773,16.64277 101.998118,16.0199365 L106.843753,11.1549353 C107.053812,10.9438522 107.051821,10.6025714 106.839273,10.3939295 L105.579746,9.15851575 C105.47538,9.05614777 105.336834,9 105.189494,9" id="Fill-11" fill="#3AB2E9"></path>
                <path d="M86.4999253,1.9263221 C88.8827833,1.9263221 90.9102583,3.62942167 91.668359,5.9982299 L81.3598626,5.9982299 C82.113633,3.62942167 84.1299089,1.9263221 86.4999253,1.9263221 Z M93.3725549,8.04529925 L94,8.04529925 C94,3.53395065 90.7053905,0 86.4999253,0 C82.2943109,0 79,3.53395065 79,8.04529925 C79,12.5057909 82.2943109,16 86.4999253,16 C89.4975362,16 92.0324026,14.2247262 93.2411528,11.5894517 L90.9283261,11.5874723 C89.9280275,13.0748104 88.3155144,14.0418542 86.4999253,14.0418542 C83.4888756,14.0418542 81.0394206,11.3526775 81.0388234,8.04651738 L93.3725549,8.04651738 L93.3725549,8.04529925 Z" id="Fill-12" fill="#FFFFFF"></path>
                <path d="M66.0144883,0 C62.4732369,0 60,2.65783825 60,6.46332039 L60,16 L61.9353235,16 L61.9353235,6.36974421 C61.9353235,3.75129039 63.6128406,1.92281492 66.0144883,1.92281492 C68.3990909,1.92281492 70.0645345,3.75129039 70.0645345,6.36974421 L70.0645345,16 L72,16 L72,6.46332039 C72,2.65783825 69.5386946,0 66.0144883,0" id="Fill-13" fill="#FFFFFF"></path>
                <path d="M47.0146307,0 C43.4732955,0 41,2.65783825 41,6.46332039 L41,16 L42.9353693,16 L42.9353693,6.36974421 C42.9353693,3.75129039 44.6127841,1.92281492 47.0146307,1.92281492 C49.3992898,1.92281492 51.0646307,3.75129039 51.0646307,6.36974421 L51.0646307,16 L53,16 L53,6.46332039 C53,2.65783825 50.5387784,0 47.0146307,0" id="Fill-14" fill="#FFFFFF"></path>
                <path d="M26.5000747,14.0420065 C23.4887263,14.0420065 21.0388234,11.3520684 21.0388234,8.04529925 C21.0388234,4.67153285 23.4887263,1.9267789 26.5000747,1.9267789 C29.5278483,1.9267789 31.9910408,4.67153285 31.9910408,8.04529925 C31.9910408,11.3520684 29.5278483,14.0420065 26.5000747,14.0420065 M26.5000747,0 C22.2946095,0 19,3.53395065 19,8.04529925 C19,12.5059431 22.2946095,16 26.5000747,16 C30.7056891,16 34,12.5059431 34,8.04529925 C34,3.53395065 30.7056891,0 26.5000747,0" id="Fill-15" fill="#FFFFFF"></path>
                <path d="M11.5916389,12.2088714 C10.5797245,13.3368608 9.16440556,14.0420065 7.59722384,14.0420065 C4.54680846,14.0420065 2.06512229,11.3522207 2.06512229,8.04545152 C2.06512229,4.67153285 4.54680846,1.9267789 7.59722384,1.9267789 C9.16470807,1.9267789 10.5801783,2.64638986 11.592244,3.79798057 L12.9889582,2.32647817 C11.6224955,0.881622398 9.7251181,0 7.59722384,0 C3.3372001,0 0,3.53395065 0,8.04545152 C0,12.5059431 3.3372001,16 7.59722384,16 C9.73086589,16 11.6326298,15.1235547 13,13.6881394 L11.5916389,12.2088714 Z" id="Fill-16" fill="#FFFFFF"></path>
                <polygon id="Fill-17" fill="#FFFFFF" points="79 22 80.755331 22 80.755331 27.2691242 87.244669 27.2691242 87.244669 22 89 22 89 34 87.244669 34 87.244669 28.7308758 80.755331 28.7308758 80.755331 34 79 34"></polygon>
                <polygon id="Fill-18" fill="#FFFFFF" points="96 22 103.681585 22 103.681585 23.4617515 97.8548263 23.4617515 97.8548263 27.2180549 102.594886 27.2180549 102.594886 28.6798065 97.8548263 28.6798065 97.8548263 32.5382485 104 32.5382485 104 34 96 34"></polygon>
                <path d="M115.482049,23.6487678 C115.482049,23.6487678 115.194377,24.7366294 114.978812,25.3484623 L113.558708,29.155835 L117.405239,29.155835 L116.003236,25.3484623 C115.787521,24.7366294 115.517951,23.6487678 115.517951,23.6487678 L115.482049,23.6487678 Z M117.872573,30.5495417 L113.091525,30.5495417 L111.833283,34 L110,34 L114.565332,22 L116.434668,22 L121,34 L119.148766,34 L117.872573,30.5495417 Z" id="Fill-19" fill="#FFFFFF"></path>
                <polygon id="Fill-20" fill="#FFFFFF" points="128 22 129.908429 22 129.908429 32.5382485 136 32.5382485 136 34 128 34"></polygon>
                <polygon id="Fill-21" fill="#FFFFFF" points="142.150867 23.4617515 138 23.4617515 138 22 148 22 148 23.4617515 143.848989 23.4617515 143.848989 34 142.150867 34"></polygon>
                <polygon id="Fill-22" fill="#FFFFFF" points="156 22 157.755331 22 157.755331 27.2691242 164.244669 27.2691242 164.244669 22 166 22 166 34 164.244669 34 164.244669 28.7308758 157.755331 28.7308758 157.755331 34 156 34"></polygon>
            </g>
        </g>
    </g>
</svg>