<?xml version="1.0" encoding="UTF-8"?>
<svg width="375px" height="244px" viewBox="0 0 375 244" version="1.1" xmlns="http://www.w3.org/2000/svg" xmlns:xlink="http://www.w3.org/1999/xlink">
    <!-- Generator: Sketch 48.1 (47250) - http://www.bohemiancoding.com/sketch -->
    <title>onboarding_manage</title>
    <desc>Created with Sketch.</desc>
    <defs>
        <path d="M109.924914,182 C97.2639753,182 87,171.683923 87,158.958348 C87,146.232937 97.2639753,135.916646 109.924914,135.916646 C109.924914,125.009057 118.722514,116.166658 129.57484,116.166658 C135.457865,116.166658 140.711109,118.786939 144.312285,122.904284 C148.320543,111.327829 159.266207,103 172.149681,103 C188.428171,103 201.62457,116.263598 201.62457,132.624981 C201.62457,133.10991 201.596733,133.585868 201.573808,134.065085 C211.148562,137.430911 218,146.51207 218,157.312515 C218,170.989382 207.045166,182 193.437592,182 L150.862752,182 L109.924914,182 Z" id="path-1"></path>
    </defs>
    <g id="Symbols" stroke="none" stroke-width="1" fill="none" fill-rule="evenodd">
        <g id="onboarding_manage">
            <circle id="Oval-14" fill="#00BFF2" opacity="0.0815065299" cx="243" cy="60" r="51"></circle>
            <circle id="Oval-14" fill="#00ADF2" opacity="0.50495569" cx="127" cy="180" r="32"></circle>
            <path d="M201,197 C247.944204,197 286,158.944204 286,112 C286,88.1547899 276.181183,66.6028873 260.366116,51.1668592 C245.045968,36.213889 224.098994,27 201,27 C154.055796,27 116,65.0557963 116,112 C116,133.698268 122.5,145.5 122.5,145.5" id="Oval-2" stroke="#00AEEF" stroke-width="2" fill="#FFFFFF" transform="translate(201.000000, 112.000000) scale(1, -1) rotate(180.000000) translate(-201.000000, -112.000000) "></path>
            <g id="Shape">
                <use fill="#FFFFFF" fill-rule="evenodd" xlink:href="#path-1"></use>
                <path stroke="#0366D6" stroke-width="2" d="M109.924914,181 L193.437592,181 C206.491741,181 217,170.438231 217,157.312515 C217,147.15677 210.628711,138.308154 201.242171,135.008492 L200.539352,134.761429 L200.57495,134.017301 C200.580227,133.908192 200.580227,133.908192 200.585565,133.800228 C200.589693,133.716766 200.589693,133.716766 200.593738,133.633953 C200.615276,133.190214 200.62457,132.911623 200.62457,132.624981 C200.62457,116.814749 187.874746,104 172.149681,104 C159.943888,104 149.210734,111.813196 145.257245,123.23147 L144.693639,124.85925 L143.559572,123.562634 C140.026203,119.522814 134.9929,117.166658 129.57484,117.166658 C119.275939,117.166658 110.924914,125.560208 110.924914,135.916646 L110.924914,136.916646 L109.924914,136.916646 C97.8174103,136.916646 88,146.784078 88,158.958348 C88,171.132714 97.8173426,181 109.924914,181 Z"></path>
            </g>
            <path d="M264.665097,153.904456 C265.021119,156.663628 265.466147,159.333794 265.822169,162.003961 C265.822169,162.270977 265.822169,162.448988 265.911174,162.716005 C266.178191,163.606061 270.628469,165.119155 271.429518,164.496116 C273.387641,163.072027 275.345763,161.647938 277.214879,160.134844 C277.926924,159.511805 278.460957,159.689816 279.083996,160.134844 C283.356262,163.072027 286.916484,166.721255 289.853667,170.993521 C290.298695,171.61656 290.298695,172.061588 289.853667,172.684627 C288.340573,174.553743 286.916484,176.600871 285.492395,178.469987 C285.047368,179.093026 284.869356,179.62706 285.314384,180.339104 C285.581401,180.784132 285.848418,181.229159 285.937423,181.674187 C286.293445,183.721315 287.539523,184.344354 289.40864,184.433359 C291.277756,184.522365 293.146873,184.967392 294.926984,185.145404 C295.728034,185.234409 295.99505,185.501426 296.173061,186.21347 C296.885106,189.951703 297.063117,193.778942 296.707095,197.517175 C296.618089,198.941264 296.351072,200.454358 296.084056,201.878447 C295.99505,202.234469 295.550022,202.679497 295.194,202.768502 C292.79085,203.21353 290.298695,203.569552 287.895545,203.836569 C287.094495,203.925575 286.649467,204.192591 286.471456,204.993641 C286.382451,205.438669 286.20444,205.972702 285.937423,206.41773 C284.691345,208.108835 285.225379,209.532924 286.560462,210.957013 C287.80654,212.381102 288.874606,213.894196 289.942673,215.40729 C290.209689,215.763313 290.209689,216.564363 290.031678,216.920385 C287.094495,221.281657 283.445268,224.930884 279.083996,227.957073 C278.460957,228.402101 278.015929,228.313095 277.39289,227.868067 C275.523774,226.354973 273.476646,224.930884 271.60753,223.506795 C271.073496,223.061768 270.539463,222.883757 269.916424,223.328784 C269.471396,223.595801 268.937363,223.862818 268.40333,223.951823 C266.356202,224.307845 265.822169,225.642929 265.733163,227.512045 C265.644158,229.381162 265.288136,231.339284 264.932113,233.2084 C264.843108,233.564423 264.39808,234.098456 263.953052,234.187461 C258.701725,235.255528 253.539403,235.255528 248.288076,234.276467 C247.576031,234.187461 247.309015,233.831439 247.220009,233.119395 C246.952992,230.716245 246.507965,228.313095 246.240948,225.909945 C246.151942,225.108895 245.884926,224.663868 245.083876,224.485857 C244.727854,224.396851 244.282826,224.21884 243.926804,224.040829 C242.146693,222.794751 240.633598,223.150773 239.031498,224.663868 C237.785421,225.909945 236.183321,226.800001 234.759232,227.957073 C234.136193,228.491106 233.691165,228.491106 233.068127,228.046079 C228.706855,225.01989 225.057627,221.370662 222.031438,217.00939 C221.586411,216.386352 221.675416,215.941324 222.120444,215.318285 C223.633538,213.449168 225.057627,211.402041 226.481716,209.532924 C226.926744,208.998891 227.104755,208.464858 226.659727,207.841819 C226.39271,207.485797 226.125694,207.040769 226.125694,206.595741 C225.769672,204.192591 224.167572,203.747563 222.031438,203.569552 C220.251327,203.480547 218.471216,203.124525 216.780111,202.768502 C216.424089,202.679497 215.890055,202.145464 215.80105,201.789441 C214.732983,196.538114 214.732983,191.375792 215.80105,186.124465 C215.890055,185.768442 216.424089,185.234409 216.780111,185.234409 C219.272266,184.789381 221.764422,184.522365 224.256577,184.077337 C224.701605,183.988331 225.057627,183.543304 225.413649,183.187281 C225.502655,183.098276 225.502655,182.831259 225.59166,182.653248 C227.371771,180.161093 226.659727,178.02496 224.701605,175.977832 C223.722544,174.909765 222.832488,173.663688 222.031438,172.506616 C221.764422,172.150593 221.764422,171.438549 221.942433,171.082527 C224.879616,166.632249 228.617849,162.983022 232.979121,159.956833 C233.60216,159.511805 233.958182,159.600811 234.492215,160.045839 C236.361332,161.558933 238.40846,162.983022 240.277576,164.407111 C240.900615,164.852138 241.434648,165.030149 242.057687,164.585122 C242.502715,164.318105 243.036748,164.051088 243.570781,163.962083 C245.617909,163.606061 246.062937,162.270977 246.151942,160.490866 C246.240948,158.62175 246.685976,156.752633 246.863987,154.883517 C246.952992,153.993461 247.309015,153.726445 248.110064,153.637439 C253.717414,152.747384 259.146753,152.747384 264.665097,153.904456 Z M240.811609,193.600931 C240.722604,201.878447 247.487026,208.553863 255.764542,208.642869 C263.953052,208.642869 270.80648,201.878447 270.80648,193.689936 C270.80648,185.501426 264.042058,178.82601 255.853547,178.737004 C247.576031,178.647998 240.811609,185.323415 240.811609,193.600931 Z" id="Shape" stroke="#1F3C60" stroke-width="1.5" fill="#00ADF2" opacity="0.0968400187"></path>
            <path d="M264.665097,153.904456 C265.021119,156.663628 265.466147,159.333794 265.822169,162.003961 C265.822169,162.270977 265.822169,162.448988 265.911174,162.716005 C266.178191,163.606061 270.628469,165.119155 271.429518,164.496116 C273.387641,163.072027 275.345763,161.647938 277.214879,160.134844 C277.926924,159.511805 278.460957,159.689816 279.083996,160.134844 C283.356262,163.072027 283.062817,162.227734 286,166.5 C286.368379,167.01573 225.59166,222 225.59166,222 C225.59166,222 222.552652,217.760551 222.031438,217.00939 C221.586411,216.386352 221.675416,215.941324 222.120444,215.318285 C223.633538,213.449168 225.057627,211.402041 226.481716,209.532924 C226.926744,208.998891 227.104755,208.464858 226.659727,207.841819 C226.39271,207.485797 226.125694,207.040769 226.125694,206.595741 C225.769672,204.192591 224.167572,203.747563 222.031438,203.569552 C220.251327,203.480547 218.471216,203.124525 216.780111,202.768502 C216.424089,202.679497 215.890055,202.145464 215.80105,201.789441 C214.732983,196.538114 214.732983,191.375792 215.80105,186.124465 C215.890055,185.768442 216.424089,185.234409 216.780111,185.234409 C219.272266,184.789381 221.764422,184.522365 224.256577,184.077337 C224.701605,183.988331 225.057627,183.543304 225.413649,183.187281 C225.502655,183.098276 225.502655,182.831259 225.59166,182.653248 C227.371771,180.161093 226.659727,178.02496 224.701605,175.977832 C223.722544,174.909765 222.832488,173.663688 222.031438,172.506616 C221.764422,172.150593 221.764422,171.438549 221.942433,171.082527 C224.879616,166.632249 228.617849,162.983022 232.979121,159.956833 C233.60216,159.511805 233.958182,159.600811 234.492215,160.045839 C236.361332,161.558933 238.40846,162.983022 240.277576,164.407111 C240.900615,164.852138 241.434648,165.030149 242.057687,164.585122 C242.502715,164.318105 243.036748,164.051088 243.570781,163.962083 C245.617909,163.606061 246.062937,162.270977 246.151942,160.490866 C246.240948,158.62175 246.685976,156.752633 246.863987,154.883517 C246.952992,153.993461 247.309015,153.726445 248.110064,153.637439 C253.717414,152.747384 259.146753,152.747384 264.665097,153.904456 Z M240.811609,193.600931 C240.722604,201.878447 247.487026,208.553863 255.764542,208.642869 C263.953052,208.642869 270.80648,201.878447 270.80648,193.689936 C270.80648,185.501426 264.042058,178.82601 255.853547,178.737004 C247.576031,178.647998 240.811609,185.323415 240.811609,193.600931 Z" id="Shape" fill="#00AEEF" opacity="0.140041978"></path>
            <path d="M264.665097,153.904456 C265.021119,156.663628 265.466147,159.333794 265.822169,162.003961 C265.822169,162.270977 265.822169,162.448988 265.911174,162.716005 C266.178191,163.606061 270.628469,165.119155 271.429518,164.496116 C273.387641,163.072027 275.345763,161.647938 277.214879,160.134844 C277.926924,159.511805 278.460957,159.689816 279.083996,160.134844 C283.356262,163.072027 286.916484,166.721255 289.853667,170.993521 C290.298695,171.61656 290.298695,172.061588 289.853667,172.684627 C288.340573,174.553743 286.916484,176.600871 285.492395,178.469987 C285.047368,179.093026 284.869356,179.62706 285.314384,180.339104 C285.581401,180.784132 285.848418,181.229159 285.937423,181.674187 C286.293445,183.721315 287.539523,184.344354 289.40864,184.433359 C291.277756,184.522365 293.146873,184.967392 294.926984,185.145404 C295.728034,185.234409 295.99505,185.501426 296.173061,186.21347 C296.885106,189.951703 297.063117,193.778942 296.707095,197.517175 C296.618089,198.941264 296.351072,200.454358 296.084056,201.878447 C295.99505,202.234469 295.550022,202.679497 295.194,202.768502 C292.79085,203.21353 290.298695,203.569552 287.895545,203.836569 C287.094495,203.925575 286.649467,204.192591 286.471456,204.993641 C286.382451,205.438669 286.20444,205.972702 285.937423,206.41773 C284.691345,208.108835 285.225379,209.532924 286.560462,210.957013 C287.80654,212.381102 288.874606,213.894196 289.942673,215.40729 C290.209689,215.763313 290.209689,216.564363 290.031678,216.920385 C287.094495,221.281657 283.445268,224.930884 279.083996,227.957073 C278.460957,228.402101 278.015929,228.313095 277.39289,227.868067 C275.523774,226.354973 273.476646,224.930884 271.60753,223.506795 C271.073496,223.061768 270.539463,222.883757 269.916424,223.328784 C269.471396,223.595801 268.937363,223.862818 268.40333,223.951823 C266.356202,224.307845 265.822169,225.642929 265.733163,227.512045 C265.644158,229.381162 265.288136,231.339284 264.932113,233.2084 C264.843108,233.564423 264.39808,234.098456 263.953052,234.187461 C258.701725,235.255528 253.539403,235.255528 248.288076,234.276467 C247.576031,234.187461 247.309015,233.831439 247.220009,233.119395 C246.952992,230.716245 246.507965,228.313095 246.240948,225.909945 C246.151942,225.108895 245.884926,224.663868 245.083876,224.485857 C244.727854,224.396851 244.282826,224.21884 243.926804,224.040829 C242.146693,222.794751 240.633598,223.150773 239.031498,224.663868 C237.785421,225.909945 236.183321,226.800001 234.759232,227.957073 C234.136193,228.491106 233.691165,228.491106 233.068127,228.046079 C228.706855,225.01989 225.057627,221.370662 222.031438,217.00939 C221.586411,216.386352 221.675416,215.941324 222.120444,215.318285 C223.633538,213.449168 225.057627,211.402041 226.481716,209.532924 C226.926744,208.998891 227.104755,208.464858 226.659727,207.841819 C226.39271,207.485797 226.125694,207.040769 226.125694,206.595741 C225.769672,204.192591 224.167572,203.747563 222.031438,203.569552 C220.251327,203.480547 218.471216,203.124525 216.780111,202.768502 C216.424089,202.679497 215.890055,202.145464 215.80105,201.789441 C214.732983,196.538114 214.732983,191.375792 215.80105,186.124465 C215.890055,185.768442 216.424089,185.234409 216.780111,185.234409 C219.272266,184.789381 221.764422,184.522365 224.256577,184.077337 C224.701605,183.988331 225.057627,183.543304 225.413649,183.187281 C225.502655,183.098276 225.502655,182.831259 225.59166,182.653248 C227.371771,180.161093 226.659727,178.02496 224.701605,175.977832 C223.722544,174.909765 222.832488,173.663688 222.031438,172.506616 C221.764422,172.150593 221.764422,171.438549 221.942433,171.082527 C224.879616,166.632249 228.617849,162.983022 232.979121,159.956833 C233.60216,159.511805 233.958182,159.600811 234.492215,160.045839 C236.361332,161.558933 238.40846,162.983022 240.277576,164.407111 C240.900615,164.852138 241.434648,165.030149 242.057687,164.585122 C242.502715,164.318105 243.036748,164.051088 243.570781,163.962083 C245.617909,163.606061 246.062937,162.270977 246.151942,160.490866 C246.240948,158.62175 246.685976,156.752633 246.863987,154.883517 C246.952992,153.993461 247.309015,153.726445 248.110064,153.637439 C253.717414,152.747384 259.146753,152.747384 264.665097,153.904456 Z M240.811609,193.600931 C240.722604,201.878447 247.487026,208.553863 255.764542,208.642869 C263.953052,208.642869 270.80648,201.878447 270.80648,193.689936 C270.80648,185.501426 264.042058,178.82601 255.853547,178.737004 C247.576031,178.647998 240.811609,185.323415 240.811609,193.600931 Z" id="Shape" stroke="#1F3C60" stroke-width="1.5"></path>
            <path d="M173,133 C173,127.10883 170.574175,121.784243 166.666923,117.970636 C162.881945,114.276373 157.70681,112 152,112" id="Oval-2" stroke="#0366D6" stroke-width="1.5" fill="#FFFFFF" opacity="0.518540112" transform="translate(162.500000, 122.500000) scale(1, -1) rotate(180.000000) translate(-162.500000, -122.500000) "></path>
            <circle id="Oval-14" stroke="#00AEEF" fill="#FFFFFF" opacity="0.600000024" cx="288.5" cy="40.5" r="11.5"></circle>
            <circle id="Oval-14" stroke="#213D61" stroke-width="2" fill="#FFFFFF" cx="256" cy="194" r="15"></circle>
            <circle id="Oval-14" stroke="#00AEEF" fill="#FFFFFF" opacity="0.600000024" cx="83.5" cy="50.5" r="8.5"></circle>
            <circle id="Oval-14" stroke="#00AEEF" fill="#FFFFFF" opacity="0.600000024" cx="139.5" cy="229.5" r="6.5"></circle>
            <g id="Group-2" transform="translate(168.000000, 45.000000)" fill="#607D8B">
                <path d="M57.36,36.64 L28.97,36.64 C28.5557864,36.64 28.22,36.3042136 28.22,35.89 C28.22,35.4757864 28.5557864,35.14 28.97,35.14 L57.36,35.14 C57.7742136,35.14 58.11,35.4757864 58.11,35.89 C58.11,36.3042136 57.7742136,36.64 57.36,36.64 Z" id="Shape"></path>
                <path d="M57.36,42.46 L28.97,42.46 C28.5557864,42.46 28.22,42.1242136 28.22,41.71 C28.22,41.2957864 28.5557864,40.96 28.97,40.96 L57.36,40.96 C57.7742136,40.96 58.11,41.2957864 58.11,41.71 C58.11,42.1242136 57.7742136,42.46 57.36,42.46 Z" id="Shape"></path>
                <path d="M70.47,6.71 L25.25,6.71 C24.6064308,6.70736262 23.9904194,6.44848357 23.538167,5.99060147 C23.0859146,5.53271936 22.8346758,4.91355258 22.84,4.27 C22.8345018,1.91402531 20.9259747,0.00549821308 18.57,0 L4.25,0 C1.9018395,0.0164531975 0.00542884919,1.92178813 0,4.27 L0,35.98 C-1.77635684e-15,37.3060824 0.526784202,38.577852 1.46446609,39.5155339 C2.40214799,40.4532158 3.67391755,40.98 5,40.98 L17.86,40.98 C20.6214237,40.98 22.86,38.7414237 22.86,35.98 L22.86,32.46 C22.8615512,31.4154111 23.5358715,30.4907443 24.53,30.17 L24.53,45.66 C24.5354862,47.2372564 25.8127436,48.5145138 27.39,48.52 L58.99,48.52 C60.5672564,48.5145138 61.8445138,47.2372564 61.85,45.66 L61.85,30.17 C62.8441285,30.4907443 63.5184488,31.4154111 63.52,32.46 L63.52,38.09 C63.5254862,39.6672564 64.8027436,40.9445138 66.38,40.95 L73.66,40.95 C75.2372564,40.9445138 76.5145138,39.6672564 76.52,38.09 L76.52,12.74 C76.528082,11.1348064 75.8926221,9.59330882 74.7556867,8.46013193 C73.6187513,7.32695503 72.0751581,6.69660287 70.47,6.71 L70.47,6.71 Z M60.33,45.71 C60.33,46.4611073 59.7211073,47.07 58.97,47.07 L27.37,47.07 C26.6188927,47.07 26.01,46.4611073 26.01,45.71 L26.01,30.04 L60.33,30.04 L60.33,45.71 Z M75,38.14 C75,38.8911073 74.3911073,39.5 73.64,39.5 L66.36,39.5 C65.6088927,39.5 65,38.8911073 65,38.14 L65,32.46 C65,30.2950438 63.2449562,28.54 61.08,28.54 L25.25,28.54 C23.0850438,28.54 21.33,30.2950438 21.33,32.46 L21.33,35.98 C21.33,37.9019509 19.7719509,39.46 17.85,39.46 L4.98,39.46 C3.05804907,39.46 1.5,37.9019509 1.5,35.98 L1.5,4.27 C1.51089429,2.75575246 2.73575246,1.53089429 4.25,1.52 L18.57,1.52 C20.0920522,1.51996033 21.3290105,2.74798749 21.34,4.27 C21.3346834,5.31137884 21.7439615,6.31207354 22.4775176,7.05125795 C23.2110737,7.79044237 24.2086109,8.20735696 25.25,8.21 L70.47,8.21 C72.9695684,8.21549962 74.9945004,10.2404316 75,12.74 L75,38.14 Z" id="Shape"></path>
                <path d="M67.74,10.84 C66.2101712,10.84 64.97,12.0801712 64.97,13.61 C64.97,15.1398288 66.2101712,16.38 67.74,16.38 C69.2698288,16.38 70.51,15.1398288 70.51,13.61 C70.504515,12.082449 69.267551,10.845485 67.74,10.84 L67.74,10.84 Z M67.74,14.84 C67.0385984,14.84 66.47,14.2714016 66.47,13.57 C66.47,12.8685984 67.0385984,12.3 67.74,12.3 C68.4414016,12.3 69.01,12.8685984 69.01,13.57 C69.020784,13.914625 68.8920787,14.2490264 68.6530239,14.4974927 C68.4139692,14.7459591 68.0847844,14.887475 67.74,14.89 L67.74,14.84 Z" id="Shape"></path>
                <path d="M18,3.89 L5.68,3.89 C5.26578644,3.89 4.93,4.22578644 4.93,4.64 C4.93,5.05421356 5.26578644,5.39 5.68,5.39 L18,5.39 C18.4142136,5.39 18.75,5.05421356 18.75,4.64 C18.75,4.22578644 18.4142136,3.89 18,3.89 L18,3.89 Z" id="Shape"></path>
                <circle id="Oval" cx="62.02" cy="13.62" r="1"></circle>
                <circle id="Oval" cx="58.22" cy="13.62" r="1"></circle>
            </g>
            <polyline id="Path-4" stroke="#00AEEF" stroke-width="2" stroke-linecap="round" points="273 128.5 279.5 145.5 296.5 135"></polyline>
        </g>
    </g>
</svg>